<svg width="20" height="14" viewBox="0 0 20 14" fill="none" xmlns="http://www.w3.org/2000/svg">
<path d="M0 1.00012C0 0.447837 0.447715 0.00012207 1 0.00012207H19C19.5523 0.00012207 20 0.447839 20 1.00012C20 1.55241 19.5523 2.00012 19 2.00012L1 2.00012C0.447715 2.00012 0 1.55241 0 1.00012Z" fill="#176DEA"/>
<path d="M0 7.00012C0 6.44784 0.447715 6.00012 1 6.00012L19 6.00012C19.5523 6.00012 20 6.44784 20 7.00012C20 7.55241 19.5523 8.00012 19 8.00012L1 8.00012C0.447715 8.00012 0 7.55241 0 7.00012Z" fill="#176DEA"/>
<path d="M1 12.0001C0.447715 12.0001 0 12.4478 0 13.0001C0 13.5524 0.447715 14.0001 1 14.0001L19 14.0001C19.5523 14.0001 20 13.5524 20 13.0001C20 12.4478 19.5523 12.0001 19 12.0001L1 12.0001Z" fill="#176DEA"/>
</svg>
