<?xml version="1.0" encoding="UTF-8"?>
<!DOCTYPE svg PUBLIC "-//W3C//DTD SVG 1.1//EN" "http://www.w3.org/Graphics/SVG/1.1/DTD/svg11.dtd">
<!-- Creator: CorelDRAW 2020 (64-Bit) -->
<svg xmlns="http://www.w3.org/2000/svg" xml:space="preserve" width="3.7172mm" height="3.7172mm" version="1.1" style="shape-rendering:geometricPrecision; text-rendering:geometricPrecision; image-rendering:optimizeQuality; fill-rule:evenodd; clip-rule:evenodd"
viewBox="0 0 93.09 93.09"
 xmlns:xlink="http://www.w3.org/1999/xlink"
 xmlns:xodm="http://www.corel.com/coreldraw/odm/2003">
 <defs>
  <style type="text/css">
   <![CDATA[
    .fil1 {fill:#176DEA;fill-rule:nonzero}
    .fil0 {fill:white;fill-rule:nonzero}
   ]]>
  </style>
 </defs>
 <g id="Слой_x0020_1">
  <metadata id="CorelCorpID_0Corel-Layer"/>
  <path class="fil0" d="M46.55 0l0 0c25.7,0 46.54,20.85 46.54,46.55l0.01 0c-0.01,25.7 -20.85,46.54 -46.55,46.54l0 0.01c-25.7,-0.01 -46.54,-20.85 -46.54,-46.55l-0.01 0c0.01,-25.7 20.85,-46.55 46.55,-46.55z"/>
  <path class="fil1" d="M46.55 16.73l0 0c16.46,0 29.81,13.35 29.81,29.82l0 0c-0,16.46 -13.36,29.81 -29.82,29.81l0 0c-16.46,-0 -29.81,-13.36 -29.81,-29.82l-0 0c0,-16.46 13.36,-29.82 29.82,-29.82z"/>
 </g>
</svg>
