<?xml version="1.0" encoding="UTF-8"?>
<!DOCTYPE svg PUBLIC "-//W3C//DTD SVG 1.1//EN" "http://www.w3.org/Graphics/SVG/1.1/DTD/svg11.dtd">
<!-- Creator: CorelDRAW 2020 (64-Bit) -->
<svg xmlns="http://www.w3.org/2000/svg" xml:space="preserve" width="1.8626mm" height="1.8626mm" version="1.1" style="shape-rendering:geometricPrecision; text-rendering:geometricPrecision; image-rendering:optimizeQuality; fill-rule:evenodd; clip-rule:evenodd"
viewBox="0 0 145.06 145.06"
 xmlns:xlink="http://www.w3.org/1999/xlink"
 xmlns:xodm="http://www.corel.com/coreldraw/odm/2003">
 <defs>
  <style type="text/css">
   <![CDATA[
    .str0 {stroke:#FEFEFE;stroke-width:13.19;stroke-miterlimit:22.9256}
    .fil0 {fill:none}
    .fil1 {fill:#FEFEFE;fill-rule:nonzero}
   ]]>
  </style>
 </defs>
 <g id="Слой_x0020_1">
  <metadata id="CorelCorpID_0Corel-Layer"/>
  <path class="fil0 str0" d="M72.53 6.59c36.42,0 65.94,29.52 65.94,65.94 0,36.42 -29.52,65.94 -65.94,65.94 -36.42,0 -65.94,-29.52 -65.94,-65.94 0,-36.42 29.52,-65.94 65.94,-65.94z"/>
  <path class="fil1" d="M40.15 77.89l40.86 41.07c0.67,0.69 1.47,1.22 2.35,1.6 0.88,0.37 1.82,0.56 2.77,0.56 0.95,0 1.9,-0.19 2.78,-0.56 0.87,-0.37 1.67,-0.91 2.34,-1.6 1.35,-1.36 2.1,-3.2 2.1,-5.12 0,-1.92 -0.76,-3.76 -2.1,-5.12l-35.73 -36.35 35.73 -35.99c1.35,-1.36 2.1,-3.21 2.1,-5.13 0,-1.92 -0.76,-3.76 -2.1,-5.12 -0.67,-0.69 -1.46,-1.24 -2.34,-1.61 -0.88,-0.37 -1.82,-0.57 -2.78,-0.58 -0.95,0.01 -1.9,0.2 -2.78,0.58 -0.88,0.37 -1.67,0.92 -2.34,1.61l-40.86 41.07c-0.73,0.68 -1.32,1.5 -1.71,2.42 -0.4,0.93 -0.61,1.92 -0.61,2.92 0,1 0.21,1.99 0.61,2.92 0.4,0.91 0.98,1.74 1.71,2.42z"/>
 </g>
</svg>
