<?xml version="1.0" encoding="UTF-8"?>
<!DOCTYPE svg PUBLIC "-//W3C//DTD SVG 1.1//EN" "http://www.w3.org/Graphics/SVG/1.1/DTD/svg11.dtd">
<!-- Creator: CorelDRAW 2020 (64-Bit) -->
<svg xmlns="http://www.w3.org/2000/svg" xml:space="preserve" width="10.6774mm" height="10.6774mm" version="1.1" style="shape-rendering:geometricPrecision; text-rendering:geometricPrecision; image-rendering:optimizeQuality; fill-rule:evenodd; clip-rule:evenodd"
viewBox="0 0 1017.34 1017.34"
 xmlns:xlink="http://www.w3.org/1999/xlink"
 xmlns:xodm="http://www.corel.com/coreldraw/odm/2003">
 <defs>
  <style type="text/css">
   <![CDATA[
    .str0 {stroke:#FEFEFE;stroke-width:64.53;stroke-miterlimit:22.9256}
    .fil0 {fill:none}
    .fil1 {fill:#FEFEFE;fill-rule:nonzero}
   ]]>
  </style>
 </defs>
 <g id="Слой_x0020_1">
  <metadata id="CorelCorpID_0Corel-Layer"/>
  <path class="fil0 str0" d="M508.67 32.27c263.11,0 476.4,213.28 476.4,476.4 0,263.11 -213.28,476.4 -476.4,476.4 -263.11,0 -476.4,-213.28 -476.4,-476.4 0,-263.11 213.28,-476.4 476.4,-476.4z"/>
  <path class="fil1" d="M274.73 547.39l295.16 296.78c4.86,4.93 10.61,8.83 16.99,11.5 6.35,2.66 13.15,4.04 20.05,4.04 6.88,0 13.71,-1.38 20.06,-4.04 6.35,-2.67 12.13,-6.57 16.96,-11.5 9.73,-9.84 15.19,-23.16 15.19,-37.04 0,-13.87 -5.46,-27.18 -15.19,-37.02l-258.14 -262.64 258.14 -260.03c9.73,-9.83 15.19,-23.14 15.19,-37.04 0,-13.87 -5.46,-27.18 -15.19,-37.02 -4.81,-4.96 -10.58,-8.93 -16.94,-11.61 -6.35,-2.72 -13.18,-4.12 -20.08,-4.15 -6.9,0.04 -13.72,1.44 -20.08,4.15 -6.36,2.69 -12.11,6.65 -16.95,11.61l-295.16 296.78c-5.31,4.91 -9.54,10.88 -12.41,17.53 -2.89,6.65 -4.38,13.82 -4.38,21.08 0,7.26 1.5,14.43 4.38,21.08 2.88,6.63 7.11,12.61 12.41,17.53z"/>
 </g>
</svg>
