<svg width="21" height="20" viewBox="0 0 21 20" fill="none" xmlns="http://www.w3.org/2000/svg">
<path d="M10.5 19.5C5.25329 19.5 1 15.2467 1 10C1 4.75329 5.25329 0.5 10.5 0.5C15.7467 0.5 20 4.75329 20 10C20 15.2467 15.7467 19.5 10.5 19.5Z" stroke="#176DEA"/>
<path d="M15.1652 9.22792L9.27913 3.30983C9.18245 3.21166 9.06743 3.13373 8.94071 3.08056C8.81398 3.02738 8.67805 3 8.54077 3C8.40348 3 8.26756 3.02738 8.14083 3.08056C8.0141 3.13373 7.89908 3.21166 7.80241 3.30983C7.60872 3.50609 7.5 3.77156 7.5 4.04829C7.5 4.32501 7.60872 4.59049 7.80241 4.78674L12.9501 10.024L7.80241 15.2089C7.60872 15.4051 7.5 15.6706 7.5 15.9473C7.5 16.224 7.60872 16.4895 7.80241 16.6858C7.89872 16.7847 8.01358 16.8635 8.14032 16.9174C8.26707 16.9714 8.40318 16.9994 8.54077 17C8.67836 16.9994 8.81447 16.9714 8.94121 16.9174C9.06796 16.8635 9.18281 16.7847 9.27913 16.6858L15.1652 10.7677C15.2708 10.6696 15.355 10.5505 15.4126 10.418C15.4703 10.2855 15.5 10.1425 15.5 9.9978C15.5 9.85315 15.4703 9.71006 15.4126 9.57756C15.355 9.44506 15.2708 9.32601 15.1652 9.22792Z" fill="#176DEA"/>
</svg>
