<?xml version="1.0" encoding="UTF-8"?>
<!DOCTYPE svg PUBLIC "-//W3C//DTD SVG 1.1//EN" "http://www.w3.org/Graphics/SVG/1.1/DTD/svg11.dtd">
<!-- Creator: CorelDRAW 2020 (64-Bit) -->
<svg xmlns="http://www.w3.org/2000/svg" xml:space="preserve" width="1.8626mm" height="1.8626mm" version="1.1" style="shape-rendering:geometricPrecision; text-rendering:geometricPrecision; image-rendering:optimizeQuality; fill-rule:evenodd; clip-rule:evenodd"
viewBox="0 0 109.63 109.63"
 xmlns:xlink="http://www.w3.org/1999/xlink"
 xmlns:xodm="http://www.corel.com/coreldraw/odm/2003">
 <defs>
  <style type="text/css">
   <![CDATA[
    .str0 {stroke:#FEFEFE;stroke-width:9.97;stroke-miterlimit:22.9256}
    .fil0 {fill:none}
    .fil1 {fill:#FEFEFE;fill-rule:nonzero}
   ]]>
  </style>
 </defs>
 <g id="Слой_x0020_1">
  <metadata id="CorelCorpID_0Corel-Layer"/>
  <path class="fil0 str0" d="M54.82 4.98c-27.52,0 -49.84,22.31 -49.84,49.84 0,27.52 22.31,49.84 49.84,49.84 27.52,0 49.84,-22.31 49.84,-49.84 0,-27.52 -22.31,-49.84 -49.84,-49.84z"/>
  <path class="fil1" d="M79.29 58.87l-30.88 31.04c-0.51,0.52 -1.11,0.92 -1.78,1.21 -0.67,0.28 -1.38,0.42 -2.1,0.42 -0.72,0 -1.44,-0.15 -2.1,-0.42 -0.66,-0.28 -1.27,-0.69 -1.77,-1.21 -1.02,-1.02 -1.59,-2.42 -1.59,-3.87 0,-1.45 0.57,-2.84 1.59,-3.87l27.01 -27.47 -27.01 -27.2c-1.02,-1.03 -1.59,-2.43 -1.59,-3.88 0,-1.45 0.57,-2.84 1.59,-3.87 0.51,-0.52 1.11,-0.94 1.77,-1.22 0.67,-0.28 1.38,-0.43 2.1,-0.44 0.72,0.01 1.44,0.15 2.1,0.44 0.67,0.28 1.27,0.69 1.77,1.22l30.88 31.04c0.55,0.51 0.99,1.14 1.29,1.83 0.3,0.7 0.46,1.45 0.46,2.21 0,0.76 -0.16,1.51 -0.46,2.21 -0.3,0.69 -0.74,1.32 -1.29,1.83z"/>
 </g>
</svg>
