<svg width="16" height="16" viewBox="0 0 16 16" fill="none" xmlns="http://www.w3.org/2000/svg">
<path d="M7.08157 12.0816C8.40766 12.0816 9.67943 11.5548 10.6171 10.6171C11.5548 9.67943 12.0816 8.40766 12.0816 7.08158C12.0816 5.75549 11.5548 4.48372 10.6171 3.54604C9.67943 2.60836 8.40766 2.08158 7.08157 2.08158C5.75549 2.08158 4.48372 2.60836 3.54604 3.54604C2.60836 4.48372 2.08158 5.75549 2.08158 7.08158C2.08158 8.40766 2.60836 9.67943 3.54604 10.6171C4.48372 11.5548 5.75549 12.0816 7.08157 12.0816ZM12.3482 11.1699L15.3316 14.1532C15.4111 14.2302 15.4745 14.3222 15.5181 14.4239C15.5617 14.5256 15.5846 14.6349 15.5855 14.7456C15.5864 14.8562 15.5652 14.966 15.5233 15.0683C15.4813 15.1707 15.4194 15.2637 15.3411 15.3419C15.2628 15.4201 15.1697 15.4819 15.0672 15.5237C14.9648 15.5656 14.855 15.5866 14.7444 15.5855C14.6337 15.5845 14.5244 15.5614 14.4228 15.5177C14.3211 15.4739 14.2292 15.4104 14.1524 15.3307L11.1691 12.3474C9.82946 13.3873 8.1439 13.8776 6.45554 13.7184C4.76717 13.5593 3.20291 12.7627 2.0812 11.4908C0.959489 10.2189 0.364646 8.56736 0.417764 6.87235C0.470881 5.17733 1.16797 3.56626 2.36711 2.36711C3.56626 1.16797 5.17733 0.470881 6.87234 0.417764C8.56736 0.364646 10.2189 0.959489 11.4908 2.0812C12.7627 3.20291 13.5593 4.76717 13.7184 6.45554C13.8775 8.1439 13.3873 9.82946 12.3474 11.1691L12.3482 11.1699Z" fill="#176DEA"/>
</svg>
