<svg width="11" height="13" viewBox="0 0 11 13" fill="none" xmlns="http://www.w3.org/2000/svg">
<path d="M7.07888 11.2798C5.51618 12.8425 2.98474 12.8425 1.42203 11.2798C-0.140676 9.71714 -0.140676 7.18569 1.42203 5.62299L5.66467 1.38035C6.83847 0.206551 8.73351 0.206551 9.90731 1.38035C11.0811 2.55415 11.0811 4.44919 9.90731 5.62299L5.66467 9.86563C4.88685 10.6434 3.61406 10.6434 2.83624 9.86563C2.05843 9.08781 2.05843 7.81502 2.83624 7.0372L7.07888 2.79456L7.78599 3.50167L3.54335 7.74431C3.15444 8.13322 3.15444 8.76961 3.54335 9.15852C3.93226 9.54743 4.56865 9.54743 4.95756 9.15852L9.2002 4.91588C9.97802 4.13806 9.97802 2.86527 9.2002 2.08745C8.42239 1.30964 7.14959 1.30964 6.37178 2.08745L2.12914 6.3301C0.955339 7.50389 0.955339 9.39894 2.12914 10.5727C3.30293 11.7465 5.19798 11.7465 6.37178 10.5727L9.90731 7.0372L10.6144 7.74431L7.07888 11.2798Z" fill="#176DEA"/>
</svg>
