<?xml version="1.0" encoding="UTF-8"?>
<!DOCTYPE svg PUBLIC "-//W3C//DTD SVG 1.1//EN" "http://www.w3.org/Graphics/SVG/1.1/DTD/svg11.dtd">
<!-- Creator: CorelDRAW 2020 (64-Bit) -->
<svg xmlns="http://www.w3.org/2000/svg" xml:space="preserve" width="13.9273mm" height="13.9273mm" version="1.1" style="shape-rendering:geometricPrecision; text-rendering:geometricPrecision; image-rendering:optimizeQuality; fill-rule:evenodd; clip-rule:evenodd"
viewBox="0 0 525.59 525.59"
 xmlns:xlink="http://www.w3.org/1999/xlink"
 xmlns:xodm="http://www.corel.com/coreldraw/odm/2003">
 <defs>
  <style type="text/css">
   <![CDATA[
    .fil1 {fill:black}
    .fil0 {fill:white}
   ]]>
  </style>
 </defs>
 <g id="Слой_x0020_1">
  <metadata id="CorelCorpID_0Corel-Layer"/>
  <path class="fil0" d="M-0 158.9l0 207.79c0,114.9 44,158.9 158.9,158.9l207.79 0c114.9,0 158.9,-44 158.9,-158.9l0 -207.79c0,-114.9 -44,-158.9 -158.9,-158.9l-207.79 0c-114.9,0 -158.9,44 -158.9,158.9z"/>
  <path class="fil1" d="M220.61 227.35l-51.34 0.15 0 58.84 49.78 0.99c4.65,16.48 1.55,117.16 1.55,142.34l64.8 0.53c0.02,-25.71 -3.07,-126.38 1.58,-142.96l46.09 0 8.61 -59.28 -56.26 -0.66c0,-78.03 0.68,-64.03 58.67,-70.97 0,-59.68 5.09,-50.74 -21.6,-52.94 -99.75,-8.2 -101.9,41.22 -101.9,123.97z"/>
 </g>
</svg>
