<?xml version="1.0" encoding="UTF-8"?>
<!DOCTYPE svg PUBLIC "-//W3C//DTD SVG 1.1//EN" "http://www.w3.org/Graphics/SVG/1.1/DTD/svg11.dtd">
<!-- Creator: CorelDRAW 2020 (64-Bit) -->
<svg xmlns="http://www.w3.org/2000/svg" xml:space="preserve" width="13.9273mm" height="13.9273mm" version="1.1" style="shape-rendering:geometricPrecision; text-rendering:geometricPrecision; image-rendering:optimizeQuality; fill-rule:evenodd; clip-rule:evenodd"
viewBox="0 0 274.14 274.14"
 xmlns:xlink="http://www.w3.org/1999/xlink"
 xmlns:xodm="http://www.corel.com/coreldraw/odm/2003">
 <defs>
  <style type="text/css">
   <![CDATA[
    .fil1 {fill:black}
    .fil0 {fill:white}
   ]]>
  </style>
 </defs>
 <g id="Слой_x0020_1">
  <metadata id="CorelCorpID_0Corel-Layer"/>
  <path class="fil0" d="M-0 82.88l0 108.38c0,59.93 22.95,82.88 82.88,82.88l108.38 0c26.12,0 50.88,-5.51 64.13,-18.76 13.25,-13.25 18.75,-38.01 18.75,-64.12l0 -108.38c0,-59.93 -22.95,-82.88 -82.88,-82.88l-108.38 0c-59.93,0 -82.88,22.95 -82.88,82.88z"/>
  <path class="fil1" d="M95.95 62.16c-21.63,4.13 -33.13,17.6 -34.89,41.06 -1.26,16.72 -1.93,60.31 1.03,75.77 3.98,20.83 18.62,32.39 41.14,34.08 16.71,1.25 60.33,1.92 75.77,-1.03 20.79,-3.97 32.39,-18.6 34.08,-41.14 1.25,-16.71 1.92,-60.33 -1.03,-75.77 -3.98,-20.83 -18.62,-32.39 -41.14,-34.08 -17.12,-1.29 -59.46,-1.86 -74.96,1.1z"/>
  <path class="fil0" d="M99.13 75.87c-19.3,3.64 -23.74,16.86 -24.43,37.61 -0.51,15.39 -1.45,47.88 1.11,61.9 3.48,19.02 17.38,23.38 37.67,24.06 15.37,0.51 47.91,1.45 61.9,-1.11 19.02,-3.48 23.38,-17.38 24.06,-37.67 0.51,-15.37 1.45,-47.91 -1.11,-61.9 -3.48,-19.02 -17.38,-23.38 -37.67,-24.06 -15.38,-0.51 -47.89,-1.41 -61.53,1.17z"/>
  <path class="fil1" d="M128.21 98.66c-49.91,11.13 -34.36,88.29 17.94,76.84 18.73,-4.1 34.63,-23.36 29.35,-47.51 -4.09,-18.74 -23.44,-34.65 -47.29,-29.33z"/>
  <path class="fil0" d="M129.97 113c-33.09,10.85 -16.39,57.87 14.64,48.18 31.85,-9.94 16.32,-58.33 -14.64,-48.18z"/>
 </g>
</svg>
