<svg width="45" height="20" viewBox="0 0 45 20" fill="none" xmlns="http://www.w3.org/2000/svg">
<path d="M35.7658 18.7139H32.1754L32.6452 19.9912H36.8433L35.7658 18.7139Z" fill="#176DEA"/>
<path d="M27.5855 18.7139H23.9693L23.4995 19.9912H27.5855V18.7139Z" fill="#176DEA"/>
<path d="M23.021 19.9912L23.4907 18.7139H19.2409L18.1763 19.9912H23.021Z" fill="#176DEA"/>
<path d="M31.6973 18.7139H28.0336V19.9912H32.1671L31.6973 18.7139Z" fill="#176DEA"/>
<path d="M36.3607 18.7139L37.4381 19.9912H41.4942L40.2744 18.7139H36.3607Z" fill="#176DEA"/>
<path d="M18.6498 18.7139H15.0034L13.831 19.9912H17.5809L18.6498 18.7139Z" fill="#176DEA"/>
<path d="M4.80572 10.0223L12.5684 2.01157L10.6202 0L0.956726 9.97778L10.6202 19.9556L12.521 17.993L4.80572 10.0223Z" fill="#176DEA"/>
<path d="M17.1416 15.692C17.0339 15.6609 16.9304 15.6297 16.827 15.5986L13.8357 18.6871L5.43943 10.0222L13.8314 1.3573L16.4003 4.00972C16.702 3.92071 17.0123 3.83172 17.3356 3.74717C17.3572 3.74272 17.3787 3.73381 17.4003 3.72936L13.8314 0.0488892L4.17224 10.0222L13.8357 20L17.8227 15.8834C17.5899 15.8211 17.3658 15.7588 17.1416 15.692Z" fill="#176DEA"/>
<path d="M17.6416 15.8345L15.4305 18.2511H19.0381L20.4907 16.511C19.5424 16.3152 18.5683 16.0882 17.6416 15.8345Z" fill="#176DEA"/>
<path d="M21.5383 16.7156C21.3615 16.68 21.1805 16.6488 20.9952 16.6088L19.6288 18.2465H23.6589L24.0899 17.0672C23.2365 16.996 22.3831 16.8758 21.5383 16.7156Z" fill="#176DEA"/>
<path d="M24.5594 17.1072L24.1413 18.251H27.5852V17.1428C26.5766 17.1873 25.5637 17.1785 24.5594 17.1072Z" fill="#176DEA"/>
<path d="M31.4258 16.6756L32.0077 18.251H35.3783L33.6671 16.2172C32.9085 16.3863 32.1499 16.5376 31.4258 16.6756Z" fill="#176DEA"/>
<path d="M35.7837 15.6965C35.2578 15.8389 34.7147 15.9769 34.1674 16.1015L35.9733 18.2466H39.8352L37.0552 15.3271C36.6457 15.4562 36.2233 15.5763 35.7837 15.6965Z" fill="#176DEA"/>
<path d="M30.9474 16.7602C29.9819 16.9337 29.0078 17.0539 28.0294 17.1162V18.251H31.5206L30.9689 16.7557C30.9646 16.7557 30.956 16.7602 30.9474 16.7602Z" fill="#176DEA"/>
<path d="M1.85325 9.97772H0.956726V13.2577H1.85325V9.97772Z" fill="#176DEA"/>
<path d="M43.1193 9.2301H41.8351V10.5563H43.1193V9.2301Z" fill="#176DEA"/>
<path d="M38.0631 9.2301H36.7787V10.5563H38.0631V9.2301Z" fill="#176DEA"/>
<path d="M32.8738 9.2301H31.5894V10.5563H32.8738V9.2301Z" fill="#176DEA"/>
<path d="M27.689 9.2301H26.4045V10.5563H27.689V9.2301Z" fill="#176DEA"/>
<path d="M22.4996 9.2301H21.2152V10.5563H22.4996V9.2301Z" fill="#176DEA"/>
<path d="M17.314 9.2301H16.0295V10.5563H17.314V9.2301Z" fill="#176DEA"/>
<path d="M12.6374 7.25427C13.8788 6.58669 15.6028 5.9414 17.745 5.36284C18.357 5.19819 18.9864 5.04242 19.607 4.90445C23.9819 3.92537 28.5076 3.88978 32.8997 4.78876C33.7272 4.95787 34.572 5.14923 35.391 5.36284C37.6235 5.94586 39.4209 6.58669 40.714 7.25427H42.7572C42.3734 6.94273 41.9081 6.64011 41.3606 6.34637C39.9726 5.60316 38.0545 4.90891 35.6496 4.28141C34.6539 4.0233 33.5979 3.79186 32.5678 3.5916C28.3869 2.78608 24.0939 2.81278 19.926 3.69396C19.107 3.86753 18.2752 4.06334 17.4692 4.28141C15.1589 4.90891 13.3098 5.60316 11.9779 6.34637C11.4564 6.63565 11.0125 6.93827 10.6418 7.24981H12.6374V7.25427Z" fill="#176DEA"/>
<path d="M35.3699 14.0854C34.7837 14.2456 34.1802 14.3969 33.5682 14.5348C28.5727 15.6742 23.3832 15.6252 18.4221 14.3212C18.1334 14.2456 17.8532 14.1699 17.5731 14.0854C15.8059 13.5736 14.3275 13.0173 13.1809 12.4387H11.0431C11.3017 12.6301 11.5862 12.8214 11.9008 13.0039C13.2111 13.7738 15.0171 14.4948 17.2799 15.1535C17.8877 15.3315 18.5256 15.4961 19.1635 15.643C23.6892 16.7111 28.3873 16.7645 32.9389 15.8032C33.8441 15.6119 34.7621 15.3938 35.6414 15.1535C38.0467 14.4948 39.9733 13.7738 41.3609 13.0084C41.7015 12.8214 42.0119 12.6301 42.2919 12.4343H40.0462C38.8265 13.0173 37.2535 13.5691 35.3699 14.0854Z" fill="#176DEA"/>
<path d="M12.1247 9.2301H10.8403V10.5563H12.1247V9.2301Z" fill="#176DEA"/>
<path d="M44.6671 8.00006H40.3409H35.3073H30.1408H24.9743H19.8078H14.6414H9.47485V8.66673H42.6991H43.0464H43.3978H43.7495H44.1009H44.4482H44.6671V8.00006Z" fill="#176DEA"/>
<path d="M44.6671 11.3335H40.3398H35.3051H30.1416H24.9739H19.8061H14.6426H9.47485V12.0002H42.6986H43.046H43.3978H43.7493H44.1012H44.4485H44.6671V11.3335Z" fill="#176DEA"/>
<path d="M2.48251 13.5026C2.48251 14.4238 2.00408 15.167 1.41789 15.167C0.831703 15.167 0.353271 14.4194 0.353271 13.5026C0.353271 12.5813 0.831703 11.8381 1.41789 11.8381C2.00408 11.8381 2.48251 12.5813 2.48251 13.5026Z" fill="#176DEA"/>
<path d="M2.83611 18.0596C2.83611 18.9274 0 18.9274 0 18.0596C0 16.3195 0.517225 14.1699 1.41806 14.1699C2.31889 14.1699 2.83611 16.3195 2.83611 18.0596Z" fill="#176DEA"/>
</svg>
