<?xml version="1.0" encoding="UTF-8"?>
<!DOCTYPE svg PUBLIC "-//W3C//DTD SVG 1.1//EN" "http://www.w3.org/Graphics/SVG/1.1/DTD/svg11.dtd">
<!-- Creator: CorelDRAW 2020 (64-Bit) -->
<svg xmlns="http://www.w3.org/2000/svg" xml:space="preserve" width="13.9273mm" height="13.9273mm" version="1.1" style="shape-rendering:geometricPrecision; text-rendering:geometricPrecision; image-rendering:optimizeQuality; fill-rule:evenodd; clip-rule:evenodd"
viewBox="0 0 19050.25 19050.25"
 xmlns:xlink="http://www.w3.org/1999/xlink"
 xmlns:xodm="http://www.corel.com/coreldraw/odm/2003">
 <defs>
  <style type="text/css">
   <![CDATA[
    .fil1 {fill:black}
    .fil0 {fill:white}
   ]]>
  </style>
 </defs>
 <g id="Слой_x0020_1">
  <metadata id="CorelCorpID_0Corel-Layer"/>
  <path class="fil0" d="M-0 5759.41l0 7531.44c0,4164.65 1594.76,5759.41 5759.41,5759.41l7531.44 0c4164.65,0 5759.41,-1594.76 5759.41,-5759.41l0 -7531.44c0,-4164.65 -1594.76,-5759.41 -5759.41,-5759.41l-7531.44 0c-4164.65,0 -5759.41,1594.76 -5759.41,5759.41z"/>
  <path class="fil1" d="M9453.11 4026.77c-1620.2,76.6 -2883.12,1269.21 -2850.02,2974.63 74.27,3821.32 5956.79,3753.75 5825.47,-181.24 -53.07,-1590.66 -1378.64,-2868.9 -2975.45,-2793.39z"/>
  <path class="fil1" d="M8273.49 12183.31c-388.88,909.75 -2634.45,1917.84 -1539.77,2882.17 694.59,611.97 1198.22,-20.52 1519.25,-344.42 400.64,-404.33 884.17,-830.82 1223.39,-1242.27 329.24,165.51 929.31,849.29 1232.42,1153.63 314.19,315.56 855.85,1034.22 1564.8,477.51 880.75,-691.44 -251.82,-1652.21 -877.06,-2229.43 -389.7,-359.88 -433.33,-260.98 -619.77,-697.19 2898.72,-461.78 2410.13,-3003.22 396.26,-1980.63 -469.44,238.41 -1033.54,400.5 -1610.08,407.89 -1656.59,21.06 -2401.1,-1229.41 -3101.84,-429.5 -942.58,1075.94 967.61,1856.97 1812.38,2002.24z"/>
  <path class="fil0" d="M9149.59 5832.72c-1503.39,557.39 -726.18,2738.27 765.03,2224.1 1473.02,-507.88 696.5,-2765.9 -765.03,-2224.1z"/>
 </g>
</svg>
