<?xml version="1.0" encoding="UTF-8"?>
<!DOCTYPE svg PUBLIC "-//W3C//DTD SVG 1.1//EN" "http://www.w3.org/Graphics/SVG/1.1/DTD/svg11.dtd">
<!-- Creator: CorelDRAW 2020 (64-Bit) -->
<svg xmlns="http://www.w3.org/2000/svg" xml:space="preserve" width="13.9273mm" height="13.9273mm" version="1.1" style="shape-rendering:geometricPrecision; text-rendering:geometricPrecision; image-rendering:optimizeQuality; fill-rule:evenodd; clip-rule:evenodd"
viewBox="0 0 556.28 556.28"
 xmlns:xlink="http://www.w3.org/1999/xlink"
 xmlns:xodm="http://www.corel.com/coreldraw/odm/2003">
 <defs>
  <style type="text/css">
   <![CDATA[
    .fil1 {fill:black}
    .fil0 {fill:white}
   ]]>
  </style>
 </defs>
 <g id="Слой_x0020_1">
  <metadata id="CorelCorpID_0Corel-Layer"/>
  <path class="fil0" d="M-0 168.18l0 219.92c0,121.61 46.57,168.18 168.18,168.18l219.92 0c121.61,0 168.18,-46.57 168.18,-168.18l0 -219.92c0,-121.61 -46.57,-168.18 -168.18,-168.18l-219.92 0c-121.61,0 -168.18,46.57 -168.18,168.18z"/>
  <path class="fil1" d="M340.41 223.64c1.05,14.98 -35.59,42.27 -46.6,52.1 -8.95,7.99 -15.96,16.49 -24.9,24.16 -9.28,7.96 -18.82,15.86 -26.71,25.15 -20.07,23.67 9.44,34.7 35.12,52.23 110.47,75.42 101.63,83.14 128.11,-75.48 4.88,-29.22 9.43,-58.06 13.46,-87.35 4.22,-30.72 17.29,-71.29 -27.53,-58.61 -31.19,8.83 -239.56,96.34 -285.2,118.59 -42.61,20.78 18.32,34.58 35.21,39.59 38.25,11.35 47.66,5.8 74.3,-12.95 16.15,-11.36 112.38,-78.52 124.73,-77.44z"/>
 </g>
</svg>
