<?xml version="1.0" encoding="UTF-8"?>
<!DOCTYPE svg PUBLIC "-//W3C//DTD SVG 1.1//EN" "http://www.w3.org/Graphics/SVG/1.1/DTD/svg11.dtd">
<!-- Creator: CorelDRAW 2020 (64-Bit) -->
<svg xmlns="http://www.w3.org/2000/svg" xml:space="preserve" width="13.9273mm" height="13.9273mm" version="1.1" style="shape-rendering:geometricPrecision; text-rendering:geometricPrecision; image-rendering:optimizeQuality; fill-rule:evenodd; clip-rule:evenodd"
viewBox="0 0 556.28 556.28"
 xmlns:xlink="http://www.w3.org/1999/xlink"
 xmlns:xodm="http://www.corel.com/coreldraw/odm/2003">
 <defs>
  <style type="text/css">
   <![CDATA[
    .fil1 {fill:black}
    .fil0 {fill:white}
   ]]>
  </style>
 </defs>
 <g id="Слой_x0020_1">
  <metadata id="CorelCorpID_0Corel-Layer"/>
  <path class="fil0" d="M-0 168.18l0 219.92c0,53 11.18,103.24 38.06,130.12 26.88,26.88 77.13,38.06 130.12,38.06l219.92 0c121.61,0 168.18,-46.57 168.18,-168.18l0 -219.92c0,-121.61 -46.57,-168.18 -168.18,-168.18l-219.92 0c-121.61,0 -168.18,46.57 -168.18,168.18z"/>
  <path class="fil1" d="M279.43 236.74c-31.34,-3.06 -53.37,-9.89 -76.92,-22.59 -11.4,-6.14 -19.15,-11.2 -29.26,-19.95 -7.21,-6.24 -20.01,-20.73 -25.86,-23.68 -19.92,51.47 3.79,64.8 16.08,84.02l-24.46 -6.57c4.05,42.98 20.08,46.85 46.62,63.82l-23.1 0.78c5.88,26.11 29.44,40.83 55.78,44.02 -0.47,0.54 -1.25,0.57 -1.51,1.52 -0.26,0.93 -1.16,1.16 -1.52,1.47 -23.8,20.37 -56.24,24.11 -86.81,23.41 22.65,18.76 66.09,28.24 93.99,28.81 107.63,2.19 184.38,-80.84 184.38,-189.62 15.19,-14.14 17.91,-11.7 30.62,-33.04l-29.9 8.59c0.18,-1.43 0.88,-3.01 1.12,-2.56 0.01,0.03 17.88,-17.42 20.49,-31.55 -53.5,25.22 -33,9.03 -65.74,-1.91 -40.42,-13.5 -89.03,11.07 -84.01,75.02z"/>
 </g>
</svg>
