<?xml version="1.0" encoding="UTF-8"?>
<!DOCTYPE svg PUBLIC "-//W3C//DTD SVG 1.1//EN" "http://www.w3.org/Graphics/SVG/1.1/DTD/svg11.dtd">
<!-- Creator: CorelDRAW 2020 (64-Bit) -->
<svg xmlns="http://www.w3.org/2000/svg" xml:space="preserve" width="13.9273mm" height="13.9273mm" version="1.1" style="shape-rendering:geometricPrecision; text-rendering:geometricPrecision; image-rendering:optimizeQuality; fill-rule:evenodd; clip-rule:evenodd"
viewBox="0 0 266.47 266.47"
 xmlns:xlink="http://www.w3.org/1999/xlink"
 xmlns:xodm="http://www.corel.com/coreldraw/odm/2003">
 <defs>
  <style type="text/css">
   <![CDATA[
    .fil1 {fill:black}
    .fil0 {fill:white}
   ]]>
  </style>
 </defs>
 <g id="Слой_x0020_1">
  <metadata id="CorelCorpID_0Corel-Layer"/>
  <path class="fil0" d="M-0 80.56l0 105.35c0,58.25 22.31,80.56 80.56,80.56l105.35 0c25.39,0 49.45,-5.35 62.33,-18.23 12.88,-12.88 18.23,-36.95 18.23,-62.33l0 -105.35c0,-58.25 -22.31,-80.56 -80.56,-80.56l-105.35 0c-58.25,0 -80.56,22.31 -80.56,80.56z"/>
  <path class="fil1" d="M56.71 127.66c0,12.6 -0.07,22.68 1.89,35.55 1.35,8.89 4.38,14.5 10.51,18 11.73,6.71 113.44,6.11 126.19,0.5 15.62,-6.87 13.54,-36.67 13.54,-55.29 0,-53.3 -13.03,-47.1 -88.61,-47.1 -11.14,0 -43.35,0.26 -51.12,4.7 -12.35,7.07 -12.4,28.86 -12.4,43.64z"/>
  <polygon class="fil0" points="117.76,154.7 155.83,133.04 118.05,110.39 "/>
 </g>
</svg>
