<?xml version="1.0" encoding="UTF-8"?>
<!DOCTYPE svg PUBLIC "-//W3C//DTD SVG 1.1//EN" "http://www.w3.org/Graphics/SVG/1.1/DTD/svg11.dtd">
<!-- Creator: CorelDRAW 2020 (64-Bit) -->
<svg xmlns="http://www.w3.org/2000/svg" xml:space="preserve" width="13.9273mm" height="13.9273mm" version="1.1" style="shape-rendering:geometricPrecision; text-rendering:geometricPrecision; image-rendering:optimizeQuality; fill-rule:evenodd; clip-rule:evenodd"
viewBox="0 0 181.89 181.89"
 xmlns:xlink="http://www.w3.org/1999/xlink"
 xmlns:xodm="http://www.corel.com/coreldraw/odm/2003">
 <defs>
  <style type="text/css">
   <![CDATA[
    .fil1 {fill:black}
    .fil0 {fill:white}
   ]]>
  </style>
 </defs>
 <g id="Слой_x0020_1">
  <metadata id="CorelCorpID_0Corel-Layer"/>
  <path class="fil0" d="M-0 54.99l0 71.91c0,17.33 3.65,33.76 12.44,42.54 8.79,8.79 25.22,12.44 42.55,12.44l71.91 0c39.76,0 54.99,-15.23 54.99,-54.99l0 -71.91c0,-39.76 -15.23,-54.99 -54.99,-54.99l-71.91 0c-39.76,0 -54.99,15.23 -54.99,54.99z"/>
  <path class="fil1" d="M92.21 127.74l4.87 -0.16 0.05 -25.02c14.43,1.96 25.66,12.62 28.87,25.17l20.36 0c-2.37,-11.06 -10.1,-22.54 -18.48,-28.91 -1.52,-1.15 -2.78,-2.28 -4.3,-3.29 -1.8,-1.19 -3.19,-1.73 -5.18,-3.33l3.71 -3.11c1.55,-1.2 2.77,-2.37 4.04,-3.55 7.94,-7.42 14.31,-17.07 16.14,-28.87l-18.62 0.03c-3.35,12.61 -13.67,26.02 -26.58,27.88l0 -27.71 -18.62 -0.21 -0.03 48.81c-8.64,-1.39 -15.82,-10.33 -19.34,-17.36 -4.35,-8.71 -6.51,-20.42 -6.64,-31.45l-19.46 0c0.47,39.25 19.69,71.06 59.22,71.06z"/>
 </g>
</svg>
